Coordinates
version=1
nRows=14
nColumns=36
inDegrees=yes

Units are S.I. units (second, meters, Newtons, ...)
If the header above contains a line with 'inDegrees', this indicates whether rotational values are in degrees (yes) or radians (no).

endheader
time	pelvis_tilt	pelvis_list	pelvis_rotation	pelvis_tx	pelvis_ty	pelvis_tz	hip_flexion_r	hip_adduction_r	hip_rotation_r	knee_angle_r	knee_angle_r_beta	ankle_angle_r	subtalar_angle_r	mtp_angle_r	hip_flexion_l	hip_adduction_l	hip_rotation_l	knee_angle_l	knee_angle_l_beta	ankle_angle_l	subtalar_angle_l	mtp_angle_l	lumbar_extension	lumbar_bending	lumbar_rotation	arm_flex_r	arm_add_r	arm_rot_r	elbow_flex_r	pro_sup_r	arm_flex_l	arm_add_l	arm_rot_l	elbow_flex_l	pro_sup_l
      1.51666670	    -13.58691438	     -2.76419267	      4.61687635	      0.55687537	      0.93204904	     -0.01462076	     33.76615081	      2.37443271	      5.55954006	     38.60924684	      0.67385848	     14.91308690	    -14.12315379	     -7.49999849	     35.12468891	     -3.26762596	      2.81568869	     43.38561473	      0.75722183	     17.12555147	     -8.70925800	     -7.49999849	    -16.21117949	      2.55997330	     -0.05271119	     16.87122613	     -5.38725511	     16.71691937	     13.22039991	     95.04245116	     15.89295572	     -6.94211635	     17.27879828	     14.44851094	     72.46375598
      1.53333330	    -12.67778206	     -2.69038511	      4.98531781	      0.56051774	      0.94062516	     -0.01327967	     31.50249197	      2.14351829	      5.49649673	     36.78187423	      0.64196481	     14.03504319	    -14.48256353	     -7.49999852	     32.86193102	     -2.95473075	      3.13406675	     41.51423080	      0.72456001	     16.56191634	     -8.82227197	     -7.49999852	    -16.57395958	      2.75382394	     -0.37851322	     16.75993830	     -5.43801554	     16.66445478	     13.35828341	     95.10937965	     15.51565174	     -6.86134312	     17.38774248	     14.46513948	     72.49010774
      1.55000000	    -12.00018767	     -2.58521879	      5.16929238	      0.56080682	      0.94066708	     -0.01322458	     30.03406577	      2.02537223	      5.44089830	     35.71247608	      0.62330029	     13.74526689	    -14.72826605	     -7.49999863	     31.22261324	     -2.73093365	      3.46550089	     40.07344616	      0.69941358	     16.39641486	     -9.00391711	     -7.49999863	    -16.77077261	      2.79353555	     -0.51460389	     16.72785178	     -5.46021702	     16.42538078	     13.57274085	     94.07013807	     15.25775107	     -6.86096835	     17.26650063	     14.68170870	     72.20999742
      1.56666670	    -11.58274941	     -2.62720490	      5.29423803	      0.56448457	      0.94369853	     -0.01166511	     28.83389038	      2.12055255	      5.48348747	     34.49537548	      0.60205788	     13.24577272	    -14.83621914	     -7.49999890	     29.98907214	     -2.73051793	      3.98603850	     38.74344400	      0.67620066	     16.09792361	     -9.31208826	     -7.49999890	    -16.64196332	      2.89322344	     -0.61000438	     16.77660763	     -5.52895510	     18.08680705	     13.49054212	     93.90895539	     15.10230947	     -6.92292615	     18.59189281	     14.58919373	     72.00868589
      1.58333330	    -11.87213426	     -2.72422327	      5.08201442	      0.56753930	      0.94467794	     -0.01390151	     28.49948001	      2.27796843	      5.72046329	     33.47305953	      0.58421510	     12.62664300	    -15.04066005	     -7.49999899	     29.76328164	     -2.81659919	      4.02358742	     37.93876502	      0.66215636	     15.69772371	     -9.72408570	     -7.49999899	    -15.55243983	      3.01307803	     -0.51057135	     16.33423232	     -5.55818095	     17.45809014	     13.87148475	     90.99391939	     14.40971394	     -6.82434196	     17.94210153	     15.17483845	     70.74273226
      1.60000000	    -11.47257148	     -2.72710894	      5.16323492	      0.57116431	      0.94443856	     -0.01273746	     27.41813855	      2.26122186	      5.44510074	     32.55635489	      0.56821559	     12.74783145	    -14.78762482	     -7.49999902	     28.71872173	     -2.83626342	      4.26184821	     37.05543685	      0.64673938	     15.65743765	     -9.76876589	     -7.49999902	    -15.33404477	      3.09331939	     -0.64550860	     16.11195992	     -5.49698176	     17.24813694	     13.91538917	     90.52377386	     14.24074468	     -6.73392416	     17.78887402	     15.02867994	     70.63707267
      1.61666670	    -11.10031520	     -2.65236912	      4.99162235	      0.57817359	      0.94817781	     -0.00942177	     25.99594709	      2.23705632	      5.03569189	     31.15675030	      0.54378788	     13.04540580	    -13.61391307	     -7.49999905	     27.43681027	     -3.00321294	      4.08454839	     35.94004992	      0.62727220	     15.50562758	     -9.48003136	     -7.49999905	    -14.94450998	      2.92540826	     -0.54511750	     15.65296879	     -5.46327555	     17.46843472	     14.05235976	     91.21120037	     13.87565289	     -6.82412898	     18.12857390	     14.80295979	     70.96275275
      1.63333330	    -10.64860784	     -2.62154675	      4.75307037	      0.58720841	      0.95848883	     -0.01287980	     24.01987657	      2.20123306	      4.93155537	     29.03236259	      0.50671032	     12.34231793	    -12.86874395	     -7.49999904	     25.43820950	     -3.19520400	      3.87130388	     33.98583400	      0.59316470	     14.94420157	     -9.09756916	     -7.49999904	    -14.20522542	      2.80357472	     -0.56579064	     14.96137602	     -5.26385447	     16.99058639	     13.86019463	     91.84108548	     13.25906116	     -6.71029020	     17.83811212	     14.32555591	     71.26553911
      1.65000000	     -9.89161503	     -2.46444651	      4.77607279	      0.59279636	      0.96501916	     -0.01684450	     21.68650737	      1.82704189	      4.45007898	     26.92367363	      0.46990675	     11.69006668	    -11.59456446	     -7.49999906	     22.95477734	     -3.05097475	      3.70461430	     31.66336290	      0.55262993	     13.99513683	     -8.99009028	     -7.49999906	    -13.84981529	      2.68006762	     -0.85006427	     14.30038123	     -5.18135925	     17.02490032	     13.77255115	     92.30923139	     12.65846217	     -6.56991522	     18.07993307	     13.80752539	     71.49169609
      1.66666670	     -9.16843774	     -2.25287364	      4.63999731	      0.59872577	      0.96444670	     -0.01752470	     19.63257591	      1.47395676	      4.07405393	     25.28023736	      0.44122338	     11.28917790	    -10.55354637	     -7.49999925	     20.68187672	     -2.85878012	      3.42062941	     29.64064598	      0.51732686	     13.55816756	     -8.80590138	     -7.49999925	    -13.42729587	      2.46137015	     -0.90447102	     13.76746099	     -5.19104727	     17.70623133	     13.29600811	     94.13852837	     12.24447316	     -6.47446548	     19.46637277	     13.05007221	     72.46312470
      1.68333330	     -8.91629143	     -1.97434775	      4.40747801	      0.59869850	      0.96469807	     -0.01693050	     18.62788770	      1.11442421	      3.87785535	     24.29012401	      0.42394264	     11.25706403	     -9.85799573	     -7.49999926	     19.24262590	     -2.63453701	      2.94878465	     27.92706475	      0.48741923	     13.12409239	     -8.88725934	     -7.49999926	    -12.81407155	      2.09668226	     -1.03259812	     13.17481394	     -5.08017628	     17.41662428	     13.26148333	     94.26787730	     11.65057121	     -6.41000483	     19.40602262	     12.86414802	     72.50622893
      1.70000000	     -8.56168432	     -1.63415305	      4.35564907	      0.60143750	      0.96787464	     -0.01926515	     17.70044107	      0.56998447	      3.39385204	     23.61271543	      0.41211963	     11.14080651	     -8.95766391	     -7.49999949	     17.72021528	     -2.23040470	      2.75803465	     26.16577037	      0.45667884	     12.58675550	     -8.99199187	     -7.49999949	    -12.34936575	      1.79806832	     -1.23225992	     12.82926216	     -5.04246517	     18.18086088	     13.02690024	     92.89484309	     11.16718269	     -6.37930007	     19.94506976	     12.60709772	     71.85631594
      1.71666670	     -8.28270734	     -1.32662809	      4.43641819	      0.60712634	      0.96630651	     -0.01915925	     16.87057248	      0.17374059	      3.29873038	     23.02875714	      0.40192763	     11.19906570	     -8.66177735	     -7.49999951	     16.51899716	     -1.89730202	      2.48913660	     24.88290908	      0.43428869	     12.45943621	     -8.88316286	     -7.49999951	    -11.92560847	      1.51805047	     -1.38516328	     12.26356998	     -4.97937820	     17.84720375	     13.20926776	     93.14751842	     10.67971597	     -6.36032285	     19.89619821	     12.61665869	     71.98667886
      1.73333330	     -8.32732976	     -1.25046818	      4.56660814	      0.60714543	      0.96668257	     -0.01978228	     16.60635409	     -0.05167636	      2.87609682	     22.74241167	      0.39692996	     11.23966213	     -8.34745193	     -7.49999955	     15.91872321	     -1.74062389	      2.52874881	     23.85513105	      0.41635058	     12.26050407	     -8.88110831	     -7.49999955	    -11.24540456	      1.47948502	     -1.55643977	     11.69959387	     -4.92587446	     17.03703064	     13.38871033	     91.09771438	     10.26190085	     -6.18887106	     19.21598963	     12.76023899	     71.25891259
